<svg xmlns="http://www.w3.org/2000/svg" xmlns:xlink="http://www.w3.org/1999/xlink"><defs><symbol id="Vec1-usage" viewBox="0 0 12 18"><path d="M6 0C2.692 0 0 2.692 0 6c0 .993.248 1.978.72 2.851l4.952 8.956a.375.375 0 00.656 0l4.953-8.959A6.01 6.01 0 0012 6c0-3.308-2.692-6-6-6zm0 9C4.346 9 3 7.654 3 6s1.346-3 3-3 3 1.346 3 3-1.346 3-3 3z" fill="#7A1B1B"/></symbol><symbol id="Vec2-usage" viewBox="0 0 17 17"><path d="M13.685 10.907c-.588-.58-1.322-.58-1.907 0-.445.442-.891.884-1.33 1.333-.12.124-.22.15-.366.068-.289-.158-.596-.285-.873-.457-1.292-.813-2.375-1.858-3.334-3.034-.476-.585-.899-1.21-1.195-1.914-.06-.143-.048-.236.068-.352.445-.431.88-.873 1.318-1.315.61-.614.61-1.334-.004-1.952-.348-.352-.696-.696-1.045-1.048-.36-.36-.715-.723-1.078-1.08-.588-.572-1.323-.572-1.907.005-.45.442-.88.895-1.337 1.33-.423.4-.637.89-.682 1.464-.071.933.157 1.813.48 2.67.659 1.776 1.663 3.353 2.88 4.799a17.825 17.825 0 005.903 4.618c1.034.502 2.105.888 3.27.951.802.045 1.499-.157 2.057-.782.382-.427.813-.817 1.217-1.225.6-.607.603-1.341.008-1.94a568.464 568.464 0 00-2.143-2.14z" fill="#7A1B1B"/></symbol><symbol id="Vec3-usage" viewBox="0 0 18 13"><path d="M9 9L6.773 7.05.406 12.51c.232.214.544.348.889.348h15.41c.344 0 .655-.134.885-.348l-6.363-5.46L9 9z" fill="#7A1B1B"/><path d="M17.594.348A1.295 1.295 0 0016.705 0H1.295a1.29 1.29 0 00-.886.351L9 7.714 17.594.348zM0 1.129V11.81l6.214-5.28L0 1.128zM11.786 6.53L18 11.81V1.126L11.786 6.53z" fill="#7A1B1B"/></symbol><symbol id="Vector-usage" viewBox="0 0 60 60"><path d="M13.75 60H1.25A1.25 1.25 0 010 58.75v-20a1.25 1.25 0 011.25-1.25h12.5A1.25 1.25 0 0115 38.75v20A1.25 1.25 0 0113.75 60zM2.5 57.5h10V40h-10v17.5z" fill="#fff"/><path d="M55 60H23.75a1.25 1.25 0 01-.559-.125l-7.236-3.625H13.75A1.25 1.25 0 0112.5 55V38.75a1.25 1.25 0 011.25-1.25h10c.194 0 .385.045.559.131l9.736 4.869H42.5a4.999 4.999 0 014.329 7.5H55a5 5 0 110 10zm-30.955-2.5H55a2.5 2.5 0 000-5H32.5V50h10a2.5 2.5 0 000-5h-8.75a1.251 1.251 0 01-.559-.125L23.455 40H15v13.75h1.25c.193-.002.385.04.559.125l7.236 3.625zm33.821-41.617L45 3.018 32.134 15.884l-1.768-1.768L44.116.366a1.25 1.25 0 011.768 0l13.75 13.75-1.768 1.768z" fill="#fff"/><path d="M50 26.25h-2.5V17.5h-5v5H40v-6.25A1.25 1.25 0 0141.25 15h7.5A1.25 1.25 0 0150 16.25v10z" fill="#fff"/><path d="M37.5 36.25A1.25 1.25 0 0136.25 35v-7.5H35a1.25 1.25 0 01-1.25-1.25v-15h2.5V25h1.25a1.25 1.25 0 011.25 1.25v5.375l5.301-6.184A1.248 1.248 0 0145 25h8.75V11.25h2.5v15A1.25 1.25 0 0155 27.5h-9.425l-7.125 8.312a1.249 1.249 0 01-.95.438z" fill="#fff"/><path d="M50 10H35v2.5h15V10zM21.25 32.5a1.25 1.25 0 01-.884-.366L15.733 27.5H3.75A3.75 3.75 0 010 23.75v-15A3.75 3.75 0 013.75 5h30v2.5h-30A1.25 1.25 0 002.5 8.75v15A1.25 1.25 0 003.75 25h12.5c.331 0 .65.132.884.366L20 28.232V26.25A1.25 1.25 0 0121.25 25h10v2.5H22.5v3.75a1.25 1.25 0 01-1.25 1.25z" fill="#fff"/><path d="M7.5 10H5v2.5h2.5V10zm21.25 0H10v2.5h18.75V10zm0 5H5v2.5h23.75V15zm0 5H5v2.5h23.75V20z" fill="#fff"/></symbol><symbol id="Vector2-usage" viewBox="0 0 61 61"><path d="M55.018 44.107l-13.08-13.08-13.081 13.08-1.797-1.797 13.979-13.98a1.271 1.271 0 011.797 0l13.98 13.98-1.798 1.797z" fill="#fff"/><path d="M47.02 54.646h-2.54V45.75h-5.084v8.896h-2.542V44.479a1.27 1.27 0 011.271-1.27h7.625a1.27 1.27 0 011.27 1.27v10.167z" fill="#fff"/><path d="M52.104 55.917H31.771a1.27 1.27 0 01-1.271-1.271v-15.25h2.542v13.979h17.791v-13.98h2.542v15.25a1.27 1.27 0 01-1.27 1.272z" fill="#fff"/><path d="M47.02 38.125H31.77v2.542h15.25v-2.542z" fill="#fff"/><path d="M57.187 61h-30.5a3.812 3.812 0 01-3.812-3.813V52.63l-9.794-9.794a1.271 1.271 0 01.898-2.17h8.896V26.689a3.812 3.812 0 013.812-3.813h30.5A3.813 3.813 0 0161 26.688v30.5A3.812 3.812 0 0157.187 61zm-40.14-17.792l7.997 7.998c.239.238.372.561.373.898v5.084a1.27 1.27 0 001.27 1.27h30.5a1.27 1.27 0 001.271-1.27v-30.5a1.27 1.27 0 00-1.27-1.271h-30.5a1.27 1.27 0 00-1.271 1.27v15.25a1.27 1.27 0 01-1.271 1.271h-7.1zM13.98 33.042H1.27A1.27 1.27 0 010 31.77V10.167c0-.337.134-.66.372-.899L9.268.372A1.27 1.27 0 0110.167 0h3.812a1.27 1.27 0 011.271 1.27v30.5a1.27 1.27 0 01-1.27 1.272zM2.541 30.5h10.166V2.542h-2.015l-8.151 8.15V30.5z" fill="#fff"/><path d="M10.167 24.146H1.27v2.541h8.896v-2.541zm8.896-2.542h-5.084a1.27 1.27 0 01-1.27-1.27V10.166a1.27 1.27 0 011.27-1.271h5.084a1.27 1.27 0 011.27 1.27v10.167a1.27 1.27 0 01-1.27 1.271zm-3.813-2.541h2.542v-7.625H15.25v7.624z" fill="#fff"/><path d="M55.917 20.333H19.062a1.27 1.27 0 01-1.27-1.27v-7.625a1.27 1.27 0 011.27-1.271h36.855a5.083 5.083 0 110 10.166zm-35.584-2.541h35.584a2.542 2.542 0 000-5.084H20.333v5.084z" fill="#fff"/><path d="M53.375 11.438h-2.542v7.624h2.542v-7.625zm-5.083 0H45.75v7.624h2.542v-7.625z" fill="#fff"/></symbol><symbol id="Vector3-usage" viewBox="0 0 501 701"><g opacity=".1" fill="#D5D5D5"><path d="M412.597 314.498l-91.398-71.672v457.677h91.398V314.498z"/><path d="M91.398 700.503H0v-700h202l349 166v534h-91.398V300.164L275.5 155.795 91.398 238.73v461.773z"/></g></symbol><symbol id="layer1w-usage" viewBox="0 0 11 17"><path fill-rule="evenodd" clip-rule="evenodd" d="M8.423 1.224a.844.844 0 011.17.023.788.788 0 01-.024 1.136L3.023 8.5l6.546 6.117c.33.307.34.816.023 1.136a.844.844 0 01-1.17.023s-7.165-6.69-7.19-6.716a.79.79 0 010-1.12c.025-.026 7.192-6.716 7.192-6.716z" fill="#fff" stroke="#fff"/></symbol><symbol id="layer2-usage" viewBox="0 0 11 17"><path clip-rule="evenodd" d="M2.4 1.224a.844.844 0 00-1.17.023.788.788 0 00.024 1.136L7.8 8.5l-6.546 6.117a.788.788 0 00-.023 1.136c.317.32.84.33 1.17.023 0 0 7.166-6.69 7.192-6.716a.79.79 0 000-1.12C9.567 7.914 2.4 1.224 2.4 1.224z"/></symbol><symbol id="layer2w-usage" viewBox="0 0 11 17"><path fill-rule="evenodd" clip-rule="evenodd" d="M2.4 1.224a.844.844 0 00-1.17.023.788.788 0 00.024 1.136L7.8 8.5l-6.546 6.117a.788.788 0 00-.023 1.136c.317.32.84.33 1.17.023 0 0 7.166-6.69 7.192-6.716a.79.79 0 000-1.12C9.567 7.914 2.4 1.224 2.4 1.224z" fill="#fff" stroke="#fff"/></symbol><symbol id="layer4-usage" viewBox="0 0 9 18"><path clip-rule="evenodd" d="M8.508 3.184a5.825 5.825 0 00-1.574-.24c-.639 0-2.016.407-2.016 1.197v1.89h3.27v3.184h-3.27V18H1.623V9.215H0V6.032h1.623V4.428C1.623 2.011 2.754 0 5.483 0 6.419 0 8.09.048 9 .359l-.492 2.825z"/></symbol><symbol id="layer5-usage" viewBox="0 0 18 14"><path clip-rule="evenodd" d="M15.157 1.115A3.763 3.763 0 0012.46 0c-2.036 0-3.69 1.583-3.69 3.534 0 .277.032.546.095.805C5.796 4.19 3.075 2.786 1.253.645a3.414 3.414 0 00-.5 1.779c0 1.225.652 2.307 1.643 2.941a3.823 3.823 0 01-1.674-.44v.043c0 1.713 1.273 3.142 2.964 3.465a3.847 3.847 0 01-1.668.062c.47 1.404 1.833 2.426 3.45 2.453A7.621 7.621 0 01.88 12.462c-.298 0-.593-.016-.881-.049A10.811 10.811 0 005.661 14c6.793 0 10.507-5.385 10.507-10.055 0-.154-.003-.308-.01-.458A7.298 7.298 0 0018 1.657a7.635 7.635 0 01-2.12.557A3.574 3.574 0 0017.503.259a7.574 7.574 0 01-2.346.856z"/></symbol><symbol id="layer6-usage" viewBox="0 0 18 18"><path clip-rule="evenodd" d="M12.732.158H5.584A5.274 5.274 0 00.316 5.426v7.148a5.274 5.274 0 005.268 5.268h7.148A5.274 5.274 0 0018 12.574V5.426A5.274 5.274 0 0012.732.158zm3.49 12.417a3.49 3.49 0 01-3.49 3.489H5.584a3.49 3.49 0 01-3.49-3.49V5.428a3.49 3.49 0 013.49-3.49h7.148a3.49 3.49 0 013.49 3.49v7.148zM13.74 5.557a1.096 1.096 0 100-2.192 1.096 1.096 0 000 2.192zm-4.422 6.398a2.795 2.795 0 110-5.59 2.795 2.795 0 010 5.59zm0-7.368A4.579 4.579 0 004.745 9.16a4.579 4.579 0 004.573 4.573 4.579 4.579 0 004.574-4.573 4.579 4.579 0 00-4.574-4.574z"/></symbol></defs><view id="view-Vec1-usage" viewBox="10 10 13.33 20"></view><view id="view-Vec2-usage" viewBox="50 10 20 20"></view><view id="view-Vec3-usage" viewBox="90 10 27.69 20"></view><view id="view-Vector-usage" viewBox="150 10 20 20"></view><view id="view-Vector2-usage" viewBox="190 10 20 20"></view><view id="view-Vector3-usage" viewBox="230 10 14.29 20"></view><view id="view-layer1w-usage" viewBox="270 10 12.94 20"></view><view id="view-layer2-usage" viewBox="310 10 12.94 20"></view><view id="view-layer2w-usage" viewBox="350 10 12.94 20"></view><view id="view-layer4-usage" viewBox="390 10 10 20"></view><view id="view-layer5-usage" viewBox="430 10 25.71 20"></view><view id="view-layer6-usage" viewBox="490 10 20 20"></view><use id="Vec1-usage" xlink:href="#Vec1-usage" width="13.33" height="20" x="10" y="10"></use><use id="Vec2-usage" xlink:href="#Vec2-usage" width="20" height="20" x="50" y="10"></use><use id="Vec3-usage" xlink:href="#Vec3-usage" width="27.69" height="20" x="90" y="10"></use><use id="Vector-usage" xlink:href="#Vector-usage" width="20" height="20" x="150" y="10"></use><use id="Vector2-usage" xlink:href="#Vector2-usage" width="20" height="20" x="190" y="10"></use><use id="Vector3-usage" xlink:href="#Vector3-usage" width="14.29" height="20" x="230" y="10"></use><use id="layer1w-usage" xlink:href="#layer1w-usage" width="12.94" height="20" x="270" y="10"></use><use id="layer2-usage" xlink:href="#layer2-usage" width="12.94" height="20" x="310" y="10"></use><use id="layer2w-usage" xlink:href="#layer2w-usage" width="12.94" height="20" x="350" y="10"></use><use id="layer4-usage" xlink:href="#layer4-usage" width="10" height="20" x="390" y="10"></use><use id="layer5-usage" xlink:href="#layer5-usage" width="25.71" height="20" x="430" y="10"></use><use id="layer6-usage" xlink:href="#layer6-usage" width="20" height="20" x="490" y="10"></use></svg>